<svg width="640" height="960" viewBox="0 0 640 960" fill="none" xmlns="http://www.w3.org/2000/svg">
  <rect width="640" height="960" rx="28" fill="#EEF2FF"></rect>
  <rect x="70" y="110" width="500" height="740" rx="22" fill="#FFFFFF"></rect>
  <rect x="110" y="160" width="420" height="44" rx="10" fill="#E5E7EB"></rect>
  <rect x="110" y="230" width="360" height="28" rx="10" fill="#E5E7EB"></rect>
  <rect x="110" y="290" width="420" height="22" rx="10" fill="#E5E7EB"></rect>
  <rect x="110" y="330" width="420" height="22" rx="10" fill="#E5E7EB"></rect>
  <rect x="110" y="370" width="340" height="22" rx="10" fill="#E5E7EB"></rect>
  <circle cx="320" cy="650" r="78" fill="#EEF2FF"></circle>
  <path d="M300 650c0-11 9-20 20-20h56c11 0 20 9 20 20v64c0 11-9 20-20 20h-56c-11 0-20-9-20-20v-64z" fill="#C7D2FE"></path>
  <path d="M244 626c0-11 9-20 20-20h56c11 0 20 9 20 20v88c0 11-9 20-20 20h-56c-11 0-20-9-20-20v-88z" fill="#A5B4FC"></path>
</svg>
